<svg xmlns="http://www.w3.org/2000/svg" viewBox="0 0 1619.3 206.34"><defs><style>.cls-1{fill:#000;}</style></defs><title>Asset 3</title><g id="Layer_2" data-name="Layer 2"><g id="Layer_1-2" data-name="Layer 1"><path class="cls-1" d="M1174.28,32.51a49.61,49.61,0,0,0-15.89-18.81h0a67.37,67.37,0,0,0-24.55-10.52A146.89,146.89,0,0,0,1102,0h-67.54V205.42h38.65v-84h26.59a142.68,142.68,0,0,0,30.69-3.19,76.36,76.36,0,0,0,25.52-10.34,52.06,52.06,0,0,0,9.49-8,22.07,22.07,0,0,0,1.92-2.46c.33-.47.66-.94,1-1.39l1.16-1.44a33,33,0,0,0,2.9-3.93l1.09-1.83h0c4.25-7.77,6.41-17.48,6.41-28.86C1179.86,49.36,1178,40.11,1174.28,32.51Zm-36.89,41.72h0a25.11,25.11,0,0,1-9.57,8.6,45.7,45.7,0,0,1-14,4.46,18.65,18.65,0,0,1-2.23.18c-.62,0-1.27.06-1.91.13l-5.31-.1-31.29-.6v-54h25.16a127.74,127.74,0,0,1,16,1,41.88,41.88,0,0,1,13.66,4,24.69,24.69,0,0,1,9.43,8.33c2.34,3.5,3.52,8.14,3.52,13.78C1140.92,65.84,1139.73,70.63,1137.39,74.23Z"/><polygon class="cls-1" points="1364.63 0 1201.43 0 1201.43 34.02 1263.71 34.02 1263.71 205.42 1302.35 205.42 1302.35 34.02 1364.63 34.02 1364.63 0"/><rect class="cls-1" x="1580.66" width="38.65" height="205.42"/><polygon class="cls-1" points="895.57 115.99 988.83 115.99 988.83 83.12 895.57 83.12 895.57 34.02 994 34.02 994 0 856.92 0 856.92 205.42 999.17 205.42 999.17 170.83 895.57 170.83 895.57 115.99"/><path class="cls-1" d="M297.81,0A102.71,102.71,0,1,0,400.52,102.71,102.83,102.83,0,0,0,297.81,0Zm0,171.12a68.41,68.41,0,1,1,68.41-68.41A68.49,68.49,0,0,1,297.81,171.12Z"/><path class="cls-1" d="M102.71,34.3a68,68,0,0,1,48.37,20l.88.88L176.21,31l-.87-.88A102.71,102.71,0,0,0,30.08,175.34a102.72,102.72,0,0,0,145.26,0l.87-.88L152,150.2l-.88.88A68.41,68.41,0,1,1,102.71,34.3Z"/><path class="cls-1" d="M752.23,34.3A69.59,69.59,0,0,1,801.12,55l.25.25L825.62,31l-.08-.08A104.15,104.15,0,0,0,753.11,0a102.72,102.72,0,0,0-73.62,175.34,102,102,0,0,0,73.62,30.07,104.14,104.14,0,0,0,72.43-30.87l.08-.08L801.37,150.2l-.27.27a69.58,69.58,0,0,1-49.05,20.65c-26.88,0-51.39-15.46-63.43-42.11-10.34-27.39-3.9-55.65,15.13-74.67A67.94,67.94,0,0,1,752.23,34.3Z"/><polygon class="cls-1" points="575.69 128.13 451.89 0 433.33 0 433.33 205.38 471.97 205.38 472.54 72.42 596.97 205.42 614.9 205.42 614.9 0 576.26 0 575.69 128.13"/><path class="cls-1" d="M1464.14,0h-15.41l-2,4.57-87.88,201.77h43.21l18.16-46.44h72.41l18.16,46.44H1554L1466.13,4.57Zm-30.83,126.46,23.12-59.11,23.13,59.11Z"/></g></g></svg>