<svg xmlns="http://www.w3.org/2000/svg" viewBox="0 0 365.5 444.59"><defs><style>.cls-1{fill:#000;}</style></defs><title>Construction</title><g id="Layer_2" data-name="Layer 2"><g id="Layer_1-2" data-name="Layer 1"><path class="cls-1" d="M195.57,246.4V186.53a16.13,16.13,0,0,1,4.75-11.47l17.38-17.38,6.7,6.71a7,7,0,0,0,9.88,0L361.15,37.52a14.87,14.87,0,0,0,0-21L349,4.36a14.86,14.86,0,0,0-21,0L201.11,131.22a7,7,0,0,0,0,9.88l6.71,6.7-17.38,17.38a30,30,0,0,0-8.84,21.35V246.4a16.06,16.06,0,0,1-4.75,11.46l-3.55,3.55-50.15-50.15a7,7,0,0,0-11.18,1.8L.74,434.47a7,7,0,0,0,9.38,9.38L231.53,332.63a7,7,0,0,0,1.8-11.19l-50.15-50.15,3.55-3.55A30,30,0,0,0,195.57,246.4ZM337.86,14.23a.9.9,0,0,1,1.27,0l12.14,12.14a.91.91,0,0,1,0,1.28L229.34,149.57l-13.41-13.41ZM216.62,324.48,22.69,421.9,120.11,228l43.31,43.31L116,318.75a7,7,0,1,0,9.88,9.88l47.46-47.46Z"/></g></g></svg>