<svg xmlns="http://www.w3.org/2000/svg" viewBox="0 0 455.72 444.59"><defs><style>.cls-1{fill:#000;}</style></defs><title>Design and planning</title><g id="Layer_2" data-name="Layer 2"><g id="Layer_1-2" data-name="Layer 1"><path class="cls-1" d="M419.23,0a7,7,0,0,0-7,7V59H36.49A36.53,36.53,0,0,0,0,95.51V408.1a36.53,36.53,0,0,0,36.49,36.49,7,7,0,0,0,7-7v-52H419.23a36.53,36.53,0,0,0,36.49-36.49V36.49A36.53,36.53,0,0,0,419.23,0ZM29.51,429.51a22.53,22.53,0,0,1,0-42.83ZM419.23,371.6H36.49A36.34,36.34,0,0,0,14,379.41V95.51A22.54,22.54,0,0,1,36.49,73H412.24V319.57a7,7,0,0,0,7,7,22.53,22.53,0,0,1,0,45.05Zm22.52-51.22a36.41,36.41,0,0,0-15.54-7.13V15.08a22.56,22.56,0,0,1,15.54,21.41Z"/><path class="cls-1" d="M31.65,134.15a7,7,0,0,0,7-7V97.65h29.5a7,7,0,1,0,0-14H31.65a7,7,0,0,0-7,7v36.49A7,7,0,0,0,31.65,134.15Z"/><path class="cls-1" d="M68.14,347.22H38.64V317.71a7,7,0,0,0-14,0V354.2a7,7,0,0,0,7,7H68.14a7,7,0,1,0,0-14Z"/><path class="cls-1" d="M394.9,310.73a7,7,0,0,0-7,7v29.51H358.41a7,7,0,1,0,0,14H394.9a7,7,0,0,0,7-7V317.71A7,7,0,0,0,394.9,310.73Z"/><path class="cls-1" d="M394.9,83.68H358.41a7,7,0,1,0,0,14h29.51v29.51a7,7,0,1,0,14,0V90.67A7,7,0,0,0,394.9,83.68Z"/><path class="cls-1" d="M366.53,281.45a7,7,0,0,0-7-7H327V213.42a7,7,0,0,0-7-7H286.78V180.22a6.11,6.11,0,0,0-.06-.86l0-.21c0-.24-.09-.49-.15-.72a1.24,1.24,0,0,1,0-.16,8.64,8.64,0,0,0-.31-.85.47.47,0,0,0-.05-.1,6.7,6.7,0,0,0-.37-.7l-.1-.17a6.05,6.05,0,0,0-.53-.72l0,0-24.66-29.1a7,7,0,0,0-5.33-2.47H131.91a7,7,0,0,0-5.33,2.47l-24.66,29.1,0,0a6.05,6.05,0,0,0-.53.72l-.1.17a5.83,5.83,0,0,0-.37.7.47.47,0,0,0-.05.1,8.64,8.64,0,0,0-.31.85s0,.1,0,.16c-.06.23-.11.48-.15.72l0,.21a6.11,6.11,0,0,0-.06.86v94.25H67.73a7,7,0,1,0,0,14H359.55A7,7,0,0,0,366.53,281.45ZM135.15,158.1H251.89l12.83,15.13H122.32Zm-20.92,29.1H272.81v87.27H216.12V230.83a7,7,0,0,0-7-7H182.59a7,7,0,0,0-7,7v43.64H114.23Zm75.34,86.28V237.82h12.58v35.66Zm97.21,1V220.4H313v54.07Z"/></g></g></svg>