<svg xmlns="http://www.w3.org/2000/svg" viewBox="0 0 142.99 104.71"><defs><style>.cls-1,.cls-2{fill:none;stroke:#1d1d1b;stroke-linejoin:round;stroke-width:3.39px;}.cls-1{stroke-linecap:round;}</style></defs><title>Asset 1</title><g id="Layer_2" data-name="Layer 2"><g id="Layer_1-2" data-name="Layer 1"><path class="cls-1" d="M91.81,74.27h35.3A5.93,5.93,0,0,1,133,80.19V100.9a2.11,2.11,0,0,1-2.11,2.11H84.26a2.11,2.11,0,0,1-2.11-2.11v-17A9.66,9.66,0,0,1,91.81,74.27Z"/><path class="cls-1" d="M60.72,1.69h74.16a6.42,6.42,0,0,1,6.42,6.42V34.44a6.42,6.42,0,0,1-6.42,6.42H60.72A3.82,3.82,0,0,1,56.89,37V5.52A3.82,3.82,0,0,1,60.72,1.69Z"/><path class="cls-1" d="M46.83,34.94H56.89V7H46.83l-4.21,4.21V30.73Z"/><path class="cls-1" d="M21.6,29.71h21V10.9h-21l-3.79,3.8V25.92Z"/><polygon class="cls-1" points="17.81 24.18 6.2 24.18 1.69 20.3 6.2 16.43 17.81 16.43 17.81 24.18"/><rect class="cls-1" x="101.86" y="40.86" width="24.14" height="33.4"/><polyline class="cls-2" points="101.86 51.42 90.35 51.42 78.53 40.29"/><line class="cls-1" x1="42.62" y1="13.16" x2="51.62" y2="13.16"/><line class="cls-1" x1="42.62" y1="18.38" x2="51.62" y2="18.38"/><line class="cls-1" x1="42.62" y1="23.59" x2="51.62" y2="23.59"/><line class="cls-1" x1="42.62" y1="28.81" x2="51.62" y2="28.81"/><line class="cls-1" x1="82.15" y1="96.08" x2="133.04" y2="96.08"/><line class="cls-1" x1="141.3" y1="10.39" x2="69.69" y2="10.39"/><line class="cls-1" x1="141.3" y1="17.65" x2="69.69" y2="17.65"/><line class="cls-1" x1="141.3" y1="24.91" x2="69.69" y2="24.91"/><line class="cls-1" x1="141.3" y1="32.17" x2="69.69" y2="32.17"/><polyline class="cls-1" points="92.74 41.63 92.74 46.63 100.87 46.63"/></g></g></svg>