<svg xmlns="http://www.w3.org/2000/svg" viewBox="0 0 379.95 36.41"><defs><style>.cls-1{fill:#bcbec0;}.cls-2{fill:#fff;}</style></defs><title>Woodram Construction White</title><g id="Layer_2" data-name="Layer 2"><g id="Layer_1-2" data-name="Layer 1"><path class="cls-1" d="M4.45,12.57l4.48,9.77L13.76,11l4.87,11.34,4.43-9.77h4.43l-9,18.4L13.76,20,9,31,0,12.57Z"/><path class="cls-1" d="M28.71,21a8.48,8.48,0,0,1,2.65-6.31,9.35,9.35,0,0,1,13,0A8.72,8.72,0,0,1,47,21.15a8.69,8.69,0,0,1-2.66,6.45,9.06,9.06,0,0,1-6.55,2.58,8.68,8.68,0,0,1-6.45-2.64A8.82,8.82,0,0,1,28.71,21Zm4,.07a5.8,5.8,0,0,0,1.37,4.06,4.85,4.85,0,0,0,3.71,1.51,4.82,4.82,0,0,0,3.71-1.5,5.63,5.63,0,0,0,1.39-4,5.67,5.67,0,0,0-1.39-4,5.28,5.28,0,0,0-7.39,0A5.54,5.54,0,0,0,32.75,21.08Z"/><path class="cls-1" d="M50.34,21A8.49,8.49,0,0,1,53,14.7a8.87,8.87,0,0,1,6.47-2.61A9,9,0,0,1,66,14.71a8.72,8.72,0,0,1,2.64,6.44A8.69,8.69,0,0,1,66,27.6a9.06,9.06,0,0,1-6.55,2.58A8.68,8.68,0,0,1,53,27.54,8.83,8.83,0,0,1,50.34,21Zm4,.07a5.75,5.75,0,0,0,1.37,4.06,5.33,5.33,0,0,0,7.42,0,5.63,5.63,0,0,0,1.38-4,5.66,5.66,0,0,0-1.38-4,5.28,5.28,0,0,0-7.39,0A5.54,5.54,0,0,0,54.39,21.08Z"/><path class="cls-1" d="M85.41,0h4V29.69h-4V27.9a7.39,7.39,0,0,1-5.29,2.28,7.51,7.51,0,0,1-5.83-2.56A9.54,9.54,0,0,1,72,21.08a9.2,9.2,0,0,1,2.31-6.4,7.38,7.38,0,0,1,11.12-.13ZM76,21.08a5.93,5.93,0,0,0,1.31,4,4.31,4.31,0,0,0,3.41,1.57,4.55,4.55,0,0,0,3.55-1.51,5.84,5.84,0,0,0,1.36-4,5.82,5.82,0,0,0-1.36-4,4.46,4.46,0,0,0-3.51-1.53,4.37,4.37,0,0,0-3.41,1.55A5.7,5.7,0,0,0,76,21.08Z"/><path class="cls-1" d="M94.38,12.57h4V14.1a7.55,7.55,0,0,1,1.94-1.57,4.44,4.44,0,0,1,2-.44,6.35,6.35,0,0,1,3.27,1l-1.81,3.62a3.82,3.82,0,0,0-2.19-.8c-2.16,0-3.24,1.62-3.24,4.88v8.88h-4Z"/><path class="cls-1" d="M120.22,12.57h4V29.69h-4V27.9a7.61,7.61,0,0,1-11.13-.28,9.53,9.53,0,0,1-2.3-6.54,9.23,9.23,0,0,1,2.3-6.42,7.43,7.43,0,0,1,5.77-2.57,7.3,7.3,0,0,1,5.36,2.46Zm-9.39,8.51a5.94,5.94,0,0,0,1.32,4,4.3,4.3,0,0,0,3.41,1.57,4.57,4.57,0,0,0,3.55-1.51,5.89,5.89,0,0,0,1.35-4,5.86,5.86,0,0,0-1.35-4,4.47,4.47,0,0,0-3.52-1.53,4.39,4.39,0,0,0-3.41,1.55A5.7,5.7,0,0,0,110.83,21.08Z"/><path class="cls-1" d="M129.18,12.57h4v1.58a8.13,8.13,0,0,1,2-1.62,4.74,4.74,0,0,1,2.16-.44,5.28,5.28,0,0,1,4.59,2.53,6,6,0,0,1,5-2.53q5.79,0,5.79,7V29.69h-4V20.18a7.46,7.46,0,0,0-.59-3.48,2.18,2.18,0,0,0-2-1,2.58,2.58,0,0,0-2.38,1.23,7.93,7.93,0,0,0-.74,4v8.84h-4V20.23c0-3-.88-4.57-2.63-4.57a2.65,2.65,0,0,0-2.44,1.25,7.78,7.78,0,0,0-.76,3.94v8.84h-4Z"/><path class="cls-2" d="M204.31,13.31v5.25a9.75,9.75,0,0,0-2.43-2.27,4.7,4.7,0,0,0-2.47-.63,4.86,4.86,0,0,0-3.71,1.57,5.46,5.46,0,0,0-1.48,3.92,5.65,5.65,0,0,0,1.42,4,4.83,4.83,0,0,0,3.68,1.55,5,5,0,0,0,2.51-.62,9.86,9.86,0,0,0,2.48-2.32v5.22a10.28,10.28,0,0,1-4.82,1.25,9.22,9.22,0,0,1-6.64-2.56,8.6,8.6,0,0,1-2.67-6.42,8.69,8.69,0,0,1,2.7-6.47,9.17,9.17,0,0,1,6.65-2.64A9.91,9.91,0,0,1,204.31,13.31Z"/><path class="cls-2" d="M207.33,21A8.49,8.49,0,0,1,210,14.7a8.87,8.87,0,0,1,6.47-2.61,9,9,0,0,1,6.5,2.62,8.72,8.72,0,0,1,2.64,6.44,8.69,8.69,0,0,1-2.66,6.45,9.06,9.06,0,0,1-6.55,2.58,8.68,8.68,0,0,1-6.45-2.64A8.83,8.83,0,0,1,207.33,21Zm4,.07a5.75,5.75,0,0,0,1.37,4.06,5.33,5.33,0,0,0,7.42,0,5.63,5.63,0,0,0,1.38-4,5.66,5.66,0,0,0-1.38-4,5.28,5.28,0,0,0-7.39,0A5.54,5.54,0,0,0,211.38,21.08Z"/><path class="cls-2" d="M229.78,12.57h4v1.58a6.52,6.52,0,0,1,4.68-2.06A5.93,5.93,0,0,1,243.09,14q1.44,1.6,1.44,5.23V29.69h-4V20.13a6.24,6.24,0,0,0-.71-3.5,2.82,2.82,0,0,0-2.49-1,3.05,3.05,0,0,0-2.8,1.31,8.89,8.89,0,0,0-.81,4.48v8.26h-4Z"/><path class="cls-2" d="M259.47,15.49l-3.27,1.74c-.51-1.06-1.15-1.59-1.91-1.59a1.33,1.33,0,0,0-.94.36,1.25,1.25,0,0,0-.38.93q0,1,2.28,1.95a13.45,13.45,0,0,1,4.24,2.5,4.24,4.24,0,0,1,1.09,3.07,5.39,5.39,0,0,1-1.83,4.15A6.56,6.56,0,0,1,248.36,26l3.38-1.56A7.13,7.13,0,0,0,252.81,26a2.42,2.42,0,0,0,1.72.67q2,0,2-1.83c0-.7-.52-1.36-1.55-2l-1.2-.58-1.21-.58A7.3,7.3,0,0,1,250.15,20a4.18,4.18,0,0,1-.89-2.76,4.9,4.9,0,0,1,1.53-3.69,5.37,5.37,0,0,1,3.79-1.46C256.78,12.09,258.4,13.22,259.47,15.49Z"/><path class="cls-2" d="M268.21,16.26V29.69h-4V16.26h-1.69V12.57h1.69V6.29h4v6.28h3.07v3.69Z"/><path class="cls-2" d="M274,12.57h4V14.1a7.7,7.7,0,0,1,1.93-1.57,4.51,4.51,0,0,1,2-.44,6.4,6.4,0,0,1,3.27,1l-1.81,3.62a3.82,3.82,0,0,0-2.2-.8c-2.15,0-3.23,1.62-3.23,4.88v8.88h-4Z"/><path class="cls-2" d="M291.94,12.57v9.82q0,4.26,3.36,4.26t3.35-4.26V12.57h4v9.91A11,11,0,0,1,302.1,26a6,6,0,0,1-1.71,2.41,8.3,8.3,0,0,1-10.17,0A6,6,0,0,1,288.48,26a9.69,9.69,0,0,1-.5-3.55V12.57Z"/><path class="cls-2" d="M320.92,13.31v5.25a9.91,9.91,0,0,0-2.42-2.27,4.74,4.74,0,0,0-2.48-.63,4.87,4.87,0,0,0-3.71,1.57,5.5,5.5,0,0,0-1.48,3.92,5.61,5.61,0,0,0,1.43,4,4.8,4.8,0,0,0,3.67,1.55,5.06,5.06,0,0,0,2.52-.62,9.85,9.85,0,0,0,2.47-2.32v5.22a10.27,10.27,0,0,1-4.81,1.25,9.24,9.24,0,0,1-6.65-2.56,8.6,8.6,0,0,1-2.67-6.42,8.66,8.66,0,0,1,2.71-6.47,9.14,9.14,0,0,1,6.64-2.64A9.91,9.91,0,0,1,320.92,13.31Z"/><path class="cls-2" d="M328.83,16.26V29.69h-3.95V16.26h-1.69V12.57h1.69V6.29h3.95v6.28h3.08v3.69Z"/><path class="cls-2" d="M334,5.45a2.42,2.42,0,0,1,.76-1.79,2.45,2.45,0,0,1,1.81-.76,2.49,2.49,0,0,1,1.83.76,2.43,2.43,0,0,1,.75,1.81,2.48,2.48,0,0,1-.75,1.82,2.42,2.42,0,0,1-1.81.76,2.46,2.46,0,0,1-1.83-.76A2.47,2.47,0,0,1,334,5.45Zm4.56,7.12V29.69h-4V12.57Z"/><path class="cls-2" d="M342.76,21a8.48,8.48,0,0,1,2.65-6.31,9.35,9.35,0,0,1,13,0A8.72,8.72,0,0,1,361,21.15a8.68,8.68,0,0,1-2.65,6.45,9.1,9.1,0,0,1-6.56,2.58,8.68,8.68,0,0,1-6.45-2.64A8.82,8.82,0,0,1,342.76,21Zm4,.07a5.8,5.8,0,0,0,1.37,4.06,5.33,5.33,0,0,0,7.42,0,5.63,5.63,0,0,0,1.39-4,5.67,5.67,0,0,0-1.39-4,4.85,4.85,0,0,0-3.71-1.51,4.79,4.79,0,0,0-3.67,1.51A5.5,5.5,0,0,0,346.8,21.08Z"/><path class="cls-2" d="M365.2,12.57h4v1.58a6.48,6.48,0,0,1,4.67-2.06A5.92,5.92,0,0,1,378.51,14Q380,15.58,380,19.2V29.69h-4V20.13a6.26,6.26,0,0,0-.7-3.5,2.84,2.84,0,0,0-2.5-1A3,3,0,0,0,370,17a8.89,8.89,0,0,0-.81,4.48v8.26h-4Z"/><polygon class="cls-2" points="180.23 20.92 180.24 20.93 180.24 20.93 180.23 20.92 180.23 20.92"/><path class="cls-2" d="M179.59,17.55s0,.05,0,.05,0,0,0-.05Z"/><path class="cls-2" d="M179.57,17.58l0,0h0Z"/><path class="cls-2" d="M171.68,6.19A15.11,15.11,0,1,0,186.79,21.3,15.11,15.11,0,0,0,171.68,6.19Zm9.64,13.3c.11,0,.15.05.21.1s-.13.13-.14.23l-.08,0c0-.05,0-.11,0-.15s0,0,0-.06A1,1,0,0,0,181.32,19.49Zm-4-6.08,0,0v0h0l0-.05Zm-.09,0,0,0v0l0,0Zm-2.63-1.61h0l0,0h0Zm-1.76-.07h-.1C172.75,11.68,172.76,11.67,172.82,11.73Zm-8.19,3,.07.06-.08,0S164.58,14.8,164.63,14.74Zm-2.6,4.9,0,.09,0,.06c.05,0,.05.09.06.16L162,20c0-.1-.09-.15-.14-.23S161.91,19.62,162,19.64Zm-.36,1.64h0ZM173.87,28l.07-.06s.07,0,.08.06A.12.12,0,0,1,173.87,28Zm7.9-6.43a.11.11,0,0,1-.09.08s0,0-.06,0-.05,0-.07,0v.08h0q-.12,0-.09.09s0,.07,0,.1h0s0-.05-.06-.07-.05,0-.07,0-.06,0-.1,0,0,.1.17.13l0,0a0,0,0,0,0,0,0c.09,0,.13.09.18.15a.53.53,0,0,1,0,.18s0,0,0,.06l-.07.1-.06,0s0,0,0,.07,0,.07,0,.1l-.11.1s0,0-.07,0l-.05-.05,0,0-.09-.06-.05.07,0,0s0-.07.05-.13l-.08.05-.06.06-.05-.06,0,.08s.12,0,.14.1a.28.28,0,0,1,.22,0l-.08,0v.06h-.07l0,.05a.12.12,0,0,1,.05,0,.17.17,0,0,1,0,.16h-.07s0,0,0,.06,0,0-.08.07v-.11l-.1.06,0,.06c0,.05,0,.06.09,0l.1-.07,0,.06c.07-.08.12,0,.21,0l0,.17.06,0a.15.15,0,0,1,0,.07.11.11,0,0,1,0,.13l-.07.05-.06,0,.12.17a.59.59,0,0,1,.25.07s0,0,0,.05.1.1.1.18a.19.19,0,0,0,0,.07.38.38,0,0,0,0,.1s0,0,0,0a.1.1,0,0,1,0,.1s-.05,0-.08,0,.06.13,0,.17.07.1,0,.15v0c.05,0,0,.05,0,.09l.05,0s0,0,0,0a.12.12,0,0,0-.05.11c0,.05-.05,0-.08,0s0,.09,0,.13a.09.09,0,0,1,0,.05.09.09,0,0,1,0,.11.11.11,0,0,1-.11,0l-.06,0s-.1-.06-.16,0a.19.19,0,0,0,.09.23s0,0,.05,0,0,.1-.07.15l.06,0s0,.09,0,.1l-.19.07s-.06,0-.09,0a.11.11,0,0,0-.09,0c0,.06-.06.07-.12,0s-.05.1-.08.14a.1.1,0,0,1-.07,0,.31.31,0,0,0-.26.22c0,.12,0,.12-.17.08l-.29-.08-.23-.11a.28.28,0,0,0-.14.24c0,.2,0,.21-.23.26a.38.38,0,0,1-.15,0A.11.11,0,0,1,179,27a.27.27,0,0,0-.24-.14h-.19a.5.5,0,0,0-.24,0,.19.19,0,0,1-.13,0s0,0-.05,0l0,0,0,0h0c0,.07-.1.05-.16.08s0,0,0,0-.06.09-.12.1a.15.15,0,0,0-.09,0,.18.18,0,0,1-.26,0s-.07,0-.1,0v.13a.16.16,0,0,1-.16,0,.14.14,0,0,0,0,.11s0,.06,0,.08l-.06,0a.17.17,0,0,0-.13.07.11.11,0,0,1-.12,0l-.24-.06a.74.74,0,0,0-.21,0h0c-.09,0-.18,0-.27,0s-.1,0-.12-.08,0,0,0,0h-.05a.41.41,0,0,0-.29,0,1.18,1.18,0,0,1-.27,0h-.09v.07h-.08c-.07,0-.06,0-.1-.05a.19.19,0,0,0-.19-.12h-.05l-.26,0a.33.33,0,0,0-.13,0c-.07,0-.07.05-.13.05a.77.77,0,0,1-.22.29l0,0c0,.05,0,.12-.13.11l0,0-.05.05v0l0,0,0,.05-.06-.08V28s-.1,0-.12-.08-.09-.05-.14-.08l-.05,0a.15.15,0,0,1-.14.05.15.15,0,0,0-.09,0,.35.35,0,0,1-.25-.09s0,0,0,0l-.06.11s0-.08,0-.09a.09.09,0,0,0-.06.11.08.08,0,0,1-.09,0l-.06,0a.06.06,0,0,0-.09,0s-.06,0-.08,0,0,0-.06,0l-.16,0c0,.17,0,.34,0,.5l0,.49v.17a5.15,5.15,0,0,0,0,.55,1.65,1.65,0,0,0,0,.32s0,.05,0,.06.2.27.38.29a1,1,0,0,1,.25.08l.07,0v0h-.09l-.47,0-.34,0h-.94l-.46,0-.11,0,.06-.05.11,0a.69.69,0,0,0,.37-.23.23.23,0,0,0,.08-.17s0-.11,0-.17a2,2,0,0,0,.06-.42c0-.3,0-.61,0-.91,0-.14,0-.28,0-.43a.14.14,0,0,0-.18-.12l-.2.07h-.11a.13.13,0,0,0-.09,0,.08.08,0,0,1-.1,0s-.08-.07-.13-.06,0,0,0,0-.05-.06-.07-.06-.22-.06-.32,0-.11,0-.16,0l-.06-.05s.06,0,0-.1l-.08,0,0-.12-.06.08a.14.14,0,0,0-.16,0,.23.23,0,0,1-.21,0l-.11,0,.07-.07c-.05,0-.09-.05-.12,0l-.18,0s-.09,0-.08-.09l-.07,0c-.08,0,0-.11,0-.16a.25.25,0,0,0-.18.14h.08c0,.06-.08.1-.14.1s-.13,0-.17-.05,0,0-.06,0a.22.22,0,0,0,0,.08c0,.08-.05.1-.13.1a.24.24,0,0,1-.23-.09l0,0c-.05.05-.08,0-.13,0s-.11-.07-.13-.12l0,0v.06h0a.28.28,0,0,0-.29.13.15.15,0,0,1-.15.08.2.2,0,0,0-.18.06l-.06,0a.92.92,0,0,0-.33.06s-.1,0-.12,0a.19.19,0,0,0-.14-.08l-.06,0s-.05,0,0-.08,0-.12,0-.18,0,0,0,0l-.11,0a.1.1,0,0,0-.11,0,.16.16,0,0,1-.2,0,.4.4,0,0,0-.18-.07.07.07,0,0,1-.07-.07c0-.06,0-.08-.09-.09s-.09,0-.09-.07l-.05,0a.09.09,0,0,0-.13-.06s-.08,0-.11,0a.92.92,0,0,0-.52,0,.27.27,0,0,0-.11.1.2.2,0,0,1-.2.09l-.23-.06a.2.2,0,0,0-.18,0,.37.37,0,0,1-.29,0,.61.61,0,0,0-.19,0l-.18,0H163a.28.28,0,0,1-.2,0,.48.48,0,0,0-.12,0s-.08,0-.09-.06,0-.08.05-.1l-.08,0s0-.1.1-.13l0-.05h.1a.11.11,0,0,1,0-.11s0-.07,0-.1,0-.07,0-.1a.22.22,0,0,0-.05-.19s-.09,0-.12,0,0-.06-.11,0a.32.32,0,0,1-.09,0l-.14,0a.12.12,0,0,1-.08-.06s0-.06,0-.08a0,0,0,0,0,0,0s-.06-.06-.06-.08a.21.21,0,0,1,.07-.11.23.23,0,0,0,.09-.25c-.07-.05-.13,0-.19,0h0c-.07,0-.12,0-.14,0s0-.1,0-.15a.16.16,0,0,0,0-.07s0-.06,0-.06-.07,0-.06-.07,0-.07,0-.06v0a.43.43,0,0,0,0-.07c-.05,0,0-.09,0-.13s0-.09,0-.12c-.09-.05,0-.12,0-.19a.07.07,0,0,1-.06,0s0,0,0,0l0,0a1.21,1.21,0,0,1,0-.19.42.42,0,0,1,.09-.24s.06-.1.13-.11l.21-.06a.19.19,0,0,1,.12-.15l-.11-.06c-.1-.06-.12-.14,0-.23a.13.13,0,0,0,0-.13v-.05l.24-.07.09.05c.06,0,.06,0,.1,0a.1.1,0,0,1,.05,0l-.1-.07v.1c-.07,0-.07,0,0-.13h-.08a.12.12,0,0,1,0-.14s0-.07.07-.07l0-.09-.05,0a.21.21,0,0,0-.1-.13.26.26,0,0,1,.21,0,.12.12,0,0,1,.16-.09l-.05-.09,0,.06-.06-.06-.06,0c0,.05.06.09,0,.15l0-.06c-.05,0-.07.08-.12,0l-.06.07-.16-.07h-.15a.28.28,0,0,1-.22-.17l0-.06s0-.06-.05-.09,0-.13,0-.2l.08-.05v-.06h0l.06.05a.12.12,0,0,1,.07-.05,1.37,1.37,0,0,0,.28,0l.07-.05h0l.09-.06s0,0,0-.08-.11,0-.14,0l0,0s-.05,0-.06,0a.3.3,0,0,1-.08.07V22c0-.09,0-.11-.1-.1h0l0-.06s-.05.09-.08,0,0,0,0,0a.12.12,0,0,1-.12-.1l0-.16s0-.08.11-.09l0,.13h0l0-.16h0a.19.19,0,0,1,0-.08c0-.05.08-.07.09-.12s.05-.06.1-.07.05.06,0,.11l.09,0v0l0-.06s0,0,0,0,.11-.14.11-.24,0-.11.08-.13,0,0,0-.05,0-.14.1-.17h0v-.07a.12.12,0,0,1-.14-.11c0-.06-.05-.11,0-.17s0,0,0,0a1.18,1.18,0,0,1-.07-.2c.11-.08.15-.1.08-.18s0,0,.12,0a.66.66,0,0,0,0-.15c0-.08,0-.1.07-.11l.06,0,0,.11-.08.07a.08.08,0,0,0,.12-.05l0,.08,0,0s0,0,0-.06l0-.07-.08,0a.38.38,0,0,0,0-.1.16.16,0,0,1,.05-.18.36.36,0,0,0,0-.11,0,0,0,0,1,0,0l.1-.18a.08.08,0,0,0,0-.11l-.08,0a.13.13,0,0,1-.09-.19.56.56,0,0,1,.05-.08.14.14,0,0,0,0-.18s0,0,0-.06l.12,0a.21.21,0,0,1,.12-.17l.14-.1h0l.11-.08c.07,0,.11-.08.1-.16s0,0,.07,0l.07.09,0,0,0,0v0a.27.27,0,0,0,.07.08.13.13,0,0,1,.06-.14l.13,0c0-.12-.07-.17-.17-.2.05-.1.12-.12.2-.06l0-.09v.09a.45.45,0,0,0,.07-.07c0-.05,0-.07.1-.08l0-.08,0-.09h.09c0-.05,0-.11,0-.15s0,0,0-.06a.71.71,0,0,0,.07-.09l0,.06.11-.05-.06-.08.08-.05s.06-.05.07-.08a.09.09,0,0,1,.09-.07.52.52,0,0,0,0-.11.08.08,0,0,0,0-.05.31.31,0,0,1,0-.33.09.09,0,0,0,0-.1c0-.09,0-.15.05-.21l.06-.12a.24.24,0,0,1,.09-.13s0-.07.07-.1l.16-.21s0,0,0,0,0-.07,0-.11.09,0,.13,0,0,0,0,0,0-.1,0-.14,0,0,0,0-.1,0-.14-.14l.07,0,0,0s.1,0,.12,0a.13.13,0,0,1,0,.06h0v-.09a.31.31,0,0,1,.05-.1l-.11,0c0-.05,0-.14-.07-.18a.51.51,0,0,0,.17-.24.12.12,0,0,1,.11-.07l.27,0h.2a.2.2,0,0,1,.14-.08v0l.07,0a.18.18,0,0,0,.16.11.35.35,0,0,0-.06-.09c-.05-.07,0-.15,0-.18l.1-.07s0,0,0-.07,0-.1.07-.14.07,0,.11,0a.17.17,0,0,0,.12,0l.08,0,.06-.11a.17.17,0,0,0,.05-.13s0,0,0-.06,0-.05,0-.06,0-.07,0-.1a.17.17,0,0,0,.08-.13.09.09,0,0,1,.09-.07V13l.1,0,.05,0a.1.1,0,0,1,.11-.07c.07,0,.1-.07.14-.11a.32.32,0,0,0,.08-.23.57.57,0,0,1,0-.13.07.07,0,0,1,0,0l.21,0-.08-.09,0,.05s0,0,0,0,0-.06.08,0,.1,0,.09.08,0,0,0,0a.4.4,0,0,1,0,.11.21.21,0,0,1,.2-.07.13.13,0,0,1,.13.17c.09,0,.11.05.17.08l.09-.06s0,0,.08,0v-.09a.14.14,0,0,0,.12-.06.44.44,0,0,1,.1-.08.18.18,0,0,0-.16,0s0,0,0-.07,0,0,.09,0a.2.2,0,0,1,.08,0c.05,0,.11,0,.16,0s0,0,.07,0h0s0-.08.05-.11.06,0,.08-.08.07,0,.11-.07,0-.08,0-.11,0-.05,0-.08l-.06-.15s.06-.06.11,0,0,0,.05,0l.06-.08,0,0a.6.6,0,0,1,.06-.11l-.09-.05v0a.22.22,0,0,0,.21,0,.15.15,0,0,1,.17,0,.17.17,0,0,0,.12,0s.06,0,.07.06l.08-.08.05,0,0-.07h0v.11l.05-.05v0c0-.11.06-.12.16-.09l.14-.09.08-.05c.07,0,.14-.09.23-.05h0c.09,0,.1,0,.12.07v0l.09-.05a.15.15,0,0,1,0,.17.28.28,0,0,0,.06.18s.07,0,.11,0l.08,0a.13.13,0,0,1,.15.06l0,.06,0,.06.08-.06s.05,0,.09,0a.16.16,0,0,0,.12.06s.05,0,.08.05l0,0s.08.06.13.07a.17.17,0,0,0,.1,0c.13,0,.18,0,.22.12h-.05v0l.14,0a.1.1,0,0,1,.1.07l-.09.09s-.07-.08-.12,0l.06,0v.07h.09a.46.46,0,0,1,.05-.1s.06,0,.09,0,.18,0,.26.12c0-.11.1-.1.16-.15V12a.43.43,0,0,1,0-.07s.06,0,.08,0a.2.2,0,0,1,.12-.12h0s.06,0,.09,0l0,0h0a.15.15,0,0,0-.11-.08l0,0h-.05c0-.07.07-.13.17-.12s0-.09,0-.13,0-.06,0-.09.15-.07.19,0,.1.09.08.17.22,0,.29.08.08.12,0,.19c0-.11,0-.11-.1-.17l0,0-.11,0a.15.15,0,0,0,0,.06v.07l-.18-.06s0,.1-.06.1h0c0,.05,0,.1,0,.15a.06.06,0,0,1,0,.06s0,.08,0,.13h.07l.07.1,0-.08.08.05a.18.18,0,0,0,.05-.07s0-.05.07,0,0,0,.05-.06h-.13c-.05-.07,0-.1,0-.14s.07.05.05.1.07-.1.14-.09l0-.06c.07,0,.12,0,.18,0l.11,0s.06,0,.05.09,0,0,0,0,.08.13.17.14a.18.18,0,0,1,.13-.09l.09,0,.12,0h0l-.07,0h.06v0l.06,0a.07.07,0,0,1,0,.07h0l0,.07c.05,0,.1,0,.1-.09s0-.12-.11-.12.06-.15.16-.08h-.1l.11.17c.06,0,.05-.08.07-.13s.08,0,.09.08-.07,0-.1,0,.1.07.15,0a.24.24,0,0,1,.2-.06s0,0,0,0,0,0,.06,0-.1.05-.13.1.07,0,.11,0v0l.06,0h0c0-.05.06,0,.1,0h0l-.14-.12.11,0,0,.14h0l-.1,0h0c0,.06.08,0,.12.06v.06l.14,0h.06c.1,0,.16,0,.22.11a.06.06,0,0,1,0,0s0,0,0,.05h0a.14.14,0,0,0-.13-.05c0,.05,0,.09.07.13a.11.11,0,0,0,.11,0,.21.21,0,0,1,.2,0v0l-.07,0a.43.43,0,0,1,0,0s0,.06,0,.1,0,.12,0,.18a1.41,1.41,0,0,0,0,.21h.06l.12.11a.05.05,0,0,0,.08,0s0-.07,0-.1,0,0,0-.05,0-.16,0-.25-.15.06-.24,0l0-.13h0l0-.06H176s.05,0,.07,0,0,0,0,0l0,.08h.18a.3.3,0,0,0,.13,0l.08,0a.11.11,0,0,0,.11,0s.06,0,.07.05,0,.07.1,0h.06v0h0a.08.08,0,0,1,.07.09.1.1,0,0,0,.06.09s.08.06.06.13,0,.05,0,.07a.19.19,0,0,1,0,.08H177s0,0,0,0,.1.08.13.15a.18.18,0,0,1,.11.05.07.07,0,0,0,.13,0l0,0a.32.32,0,0,1,.11.17c0,.07.06.1.11.13a.11.11,0,0,1,0,.17l-.06.08c.07,0,.1,0,.15-.09l.07,0v0h.05a.36.36,0,0,0,.2.08,1,1,0,0,0,.25,0c.23,0,.18,0,.27.15a.69.69,0,0,0,.11.13c-.08.05,0,.13-.06.19l-.1,0,.05.21s0-.07.06-.08h.1l-.09-.07.07-.06.05.07,0,.06h0l0,0,.05,0c0,.07,0,.14-.13.16a.11.11,0,0,1,0,.16c.05,0,.09.06.15,0s.06.06,0,.11,0,0,0,0l.17.22s.05.09.11.11v0c0,.09.09.18.14.26a.12.12,0,0,1,0,.1.22.22,0,0,0,0,.16.28.28,0,0,1,0,.29s0,0,0,.08,0,.05,0,.09a.09.09,0,0,1,.1.08.11.11,0,0,0,.07.06l.09.06-.07.07.11.06,0-.06.09.13h0c-.07,0,0,.11,0,.16s0,0,0,0h.11c.05.06,0,.11,0,.18s.08.1.16.13v-.07l.06.07a.19.19,0,0,1,.08,0s.1,0,.12.09l-.08.05s-.06,0-.07.08a.35.35,0,0,0-.05.08l.12,0a.06.06,0,0,1,.08,0s0,.06,0,.08.06,0,.08,0,0-.06,0-.09,0-.05-.06-.07l.07-.09c.07,0,.06,0,.07.06s0,.1.08.12l.11.07c-.06.06-.06.06,0,.12l-.05.12c.05,0,.12,0,.13.08l.05,0-.1-.05a.18.18,0,0,0,0-.16,0,0,0,0,1,.08,0l.08.07a.19.19,0,0,1,.12.17h.12s0,.05,0,.06a.14.14,0,0,0,0,.18.26.26,0,0,1,.05.09.11.11,0,0,1-.08.17l-.07,0a.08.08,0,0,0-.05.12.42.42,0,0,0,.11.18s0,.06,0,.09,0,0,0,0a.19.19,0,0,1,0,.19.28.28,0,0,1,0,.09l-.09,0a.17.17,0,0,1,.06.06.36.36,0,0,0,0,.09l0-.07h0l0,.06h.05c0-.05,0-.06-.07-.08v-.1h.11l0,.09h-.06l0,.17s.08-.07.11,0l-.05.07.12.11a0,0,0,0,1,0,0c0,.06,0,.14-.1.19s0,.08,0,.13,0,.15-.13.15,0,0,0,.07a.14.14,0,0,1,.12.08v0s0,.08,0,.11.07,0,.08.08a.34.34,0,0,0,0,.1c0,.07.07.13.1.19h0s0,0,0,0,0,0,0,0,0,0,.1,0a.08.08,0,0,1,0,0s0-.05,0-.05.08,0,.08,0,.08.08.1.14a.12.12,0,0,1,0,.1h0s0,.09,0,.12,0,0,0,0v0l0-.1.14.05Zm-.5,1.84c-.06,0,0-.06-.05-.11A.09.09,0,0,1,181.27,23.44Zm-19.15.1c0,.06,0,.06,0,.09S162.07,23.59,162.12,23.54Zm11.19-11.82v0h.07l0,0h0l.09,0-.08,0s0,0,0,0Zm-.18.2V12C173.07,11.94,173.07,11.94,173.13,11.92Zm0,.09,0,0h0v0Zm0-.14c-.07,0,0-.1,0-.17s.05.07.07.11h.06v.1ZM176,13H176s0,.06,0,.07a.31.31,0,0,1-.09.07v0L176,13S176,13,176,13Zm.06.26s0,0,0,0,0,0,0,0v0Z"/></g></g></svg>