<svg xmlns="http://www.w3.org/2000/svg" viewBox="0 0 380.74 437.61"><defs><style>.cls-1{fill:#000;}</style></defs><title>Project management</title><g id="Layer_2" data-name="Layer 2"><g id="Layer_1-2" data-name="Layer 1"><path class="cls-1" d="M322.79,190.37c0-73-59.4-132.42-132.42-132.42S58,117.35,58,190.37a132.36,132.36,0,0,0,65.9,114.52v20.86A18.69,18.69,0,0,0,108,344.18v13.39a18.6,18.6,0,0,0,4.13,11.7A18.55,18.55,0,0,0,108,381v13.39A18.7,18.7,0,0,0,126.72,413h23.95A32.18,32.18,0,0,0,182,437.61H198.7A32.16,32.16,0,0,0,230.06,413h24a18.7,18.7,0,0,0,18.68-18.68V381a18.56,18.56,0,0,0-4.14-11.69,18.61,18.61,0,0,0,4.14-11.7V344.18a18.69,18.69,0,0,0-15.81-18.43V304.89A132.36,132.36,0,0,0,322.79,190.37Zm-250.87,0A118.45,118.45,0,1,1,246.59,294.65a7,7,0,0,0-3.67,6.15v24.7H222l10.53-88.08a6.74,6.74,0,0,0,.2-1.63v0l2.39-20a7,7,0,1,0-13.87-1.66l-1.76,14.68h-2.54l-8.41-14.74a7,7,0,0,0-12.4.53L190.37,227l-5.75-12.42a7,7,0,0,0-12.4-.53l-8.41,14.74h-2.55l-1.75-14.68a7,7,0,1,0-13.87,1.66L148.06,236a6.27,6.27,0,0,0,.15,1.23l10.54,88.23H137.82V300.8a7,7,0,0,0-3.67-6.15A118.42,118.42,0,0,1,71.92,190.37ZM172.82,325.5l-9.89-82.72h4.94a7,7,0,0,0,6.07-3.53l3.69-6.48,6.4,13.82a7,7,0,0,0,12.68,0l6.39-13.82,3.7,6.48a7,7,0,0,0,6.07,3.53h4.93l-9.89,82.72Zm25.88,98.14H182A18.25,18.25,0,0,1,165.42,413h49.89A18.23,18.23,0,0,1,198.7,423.64Zm60-29.29a4.78,4.78,0,0,1-4.71,4.71H126.72a4.78,4.78,0,0,1-4.71-4.71V381a4.78,4.78,0,0,1,4.71-4.71H254a4.78,4.78,0,0,1,4.71,4.71Zm0-50.17v13.39a4.78,4.78,0,0,1-4.71,4.71H126.72a4.78,4.78,0,0,1-4.71-4.71V344.18a4.77,4.77,0,0,1,4.71-4.7H254A4.77,4.77,0,0,1,258.73,344.18Z"/><rect class="cls-1" x="183.38" width="13.97" height="49.07" rx="6.98"/><path class="cls-1" d="M373.75,183.38h-35.1a7,7,0,0,0,0,14h35.1a7,7,0,1,0,0-14Z"/><path class="cls-1" d="M42.08,183.38H7a7,7,0,1,0,0,14H42.08a7,7,0,1,0,0-14Z"/><path class="cls-1" d="M80.58,90.45a7,7,0,0,0,9.87,0h0a7,7,0,0,0,0-9.87L65.64,55.76a7,7,0,0,0-9.88,0h0a7,7,0,0,0,0,9.88Z"/><path class="cls-1" d="M300.16,290.28a7,7,0,0,0-9.88,0h0a7,7,0,0,0,0,9.88L315.1,325a7,7,0,0,0,9.88,0h0a7,7,0,0,0,0-9.88Z"/><path class="cls-1" d="M325,55.76a7,7,0,0,0-9.88,0L290.28,80.58a7,7,0,0,0,0,9.87h0a7,7,0,0,0,9.88,0L325,65.64a7,7,0,0,0,0-9.88Z"/><path class="cls-1" d="M90.45,290.28a7,7,0,0,0-9.87,0L55.76,315.1a7,7,0,0,0,0,9.88h0a7,7,0,0,0,9.88,0l24.81-24.82a7,7,0,0,0,0-9.88Z"/></g></g></svg>