<svg xmlns="http://www.w3.org/2000/svg" viewBox="0 0 251.02 39.04"><title>Asset 3</title><g id="Layer_2" data-name="Layer 2"><g id="Layer_1-2" data-name="Layer 1"><path d="M4.45,12.57l4.48,9.77L13.76,11l4.87,11.34,4.43-9.77h4.43l-9,18.4L13.76,20,9,31,0,12.57Z"/><path d="M28.71,21a8.48,8.48,0,0,1,2.65-6.31,9.35,9.35,0,0,1,13,0A8.72,8.72,0,0,1,47,21.15a8.69,8.69,0,0,1-2.66,6.45,9.06,9.06,0,0,1-6.55,2.58,8.68,8.68,0,0,1-6.45-2.64A8.82,8.82,0,0,1,28.71,21Zm4,.07a5.8,5.8,0,0,0,1.37,4.06,4.85,4.85,0,0,0,3.71,1.51,4.82,4.82,0,0,0,3.71-1.5,5.63,5.63,0,0,0,1.39-4,5.67,5.67,0,0,0-1.39-4,5.28,5.28,0,0,0-7.39,0A5.54,5.54,0,0,0,32.75,21.08Z"/><path d="M50.34,21A8.49,8.49,0,0,1,53,14.7a8.87,8.87,0,0,1,6.47-2.61A9,9,0,0,1,66,14.71a8.72,8.72,0,0,1,2.64,6.44A8.69,8.69,0,0,1,66,27.6a9.06,9.06,0,0,1-6.55,2.58A8.68,8.68,0,0,1,53,27.54,8.83,8.83,0,0,1,50.34,21Zm4,.07a5.75,5.75,0,0,0,1.37,4.06,5.33,5.33,0,0,0,7.42,0,5.63,5.63,0,0,0,1.38-4,5.66,5.66,0,0,0-1.38-4,5.28,5.28,0,0,0-7.39,0A5.54,5.54,0,0,0,54.39,21.08Z"/><path d="M85.41,0h4V29.69h-4V27.9a7.39,7.39,0,0,1-5.29,2.28,7.51,7.51,0,0,1-5.83-2.56A9.54,9.54,0,0,1,72,21.08a9.2,9.2,0,0,1,2.31-6.4,7.38,7.38,0,0,1,11.12-.13ZM76,21.08a5.93,5.93,0,0,0,1.31,4,4.31,4.31,0,0,0,3.41,1.57,4.55,4.55,0,0,0,3.55-1.51,5.84,5.84,0,0,0,1.36-4,5.82,5.82,0,0,0-1.36-4,4.46,4.46,0,0,0-3.51-1.53,4.37,4.37,0,0,0-3.41,1.55A5.7,5.7,0,0,0,76,21.08Z"/><path d="M94.38,12.57h4V14.1a7.55,7.55,0,0,1,1.94-1.57,4.44,4.44,0,0,1,2-.44,6.35,6.35,0,0,1,3.27,1l-1.81,3.62a3.82,3.82,0,0,0-2.19-.8c-2.16,0-3.24,1.62-3.24,4.88v8.88h-4Z"/><path d="M120.22,12.57h4V29.69h-4V27.9a7.61,7.61,0,0,1-11.13-.28,9.53,9.53,0,0,1-2.3-6.54,9.23,9.23,0,0,1,2.3-6.42,7.44,7.44,0,0,1,5.77-2.57,7.3,7.3,0,0,1,5.36,2.46Zm-9.39,8.51a5.94,5.94,0,0,0,1.32,4,4.3,4.3,0,0,0,3.41,1.57,4.57,4.57,0,0,0,3.55-1.51,5.89,5.89,0,0,0,1.35-4,5.86,5.86,0,0,0-1.35-4,4.47,4.47,0,0,0-3.52-1.53,4.39,4.39,0,0,0-3.41,1.55A5.7,5.7,0,0,0,110.83,21.08Z"/><path d="M129.18,12.57h4v1.58a8.13,8.13,0,0,1,2-1.62,4.74,4.74,0,0,1,2.16-.44,5.26,5.26,0,0,1,4.59,2.54,5.93,5.93,0,0,1,5-2.54q5.79,0,5.79,7V29.69h-4V20.18a7.46,7.46,0,0,0-.59-3.48,2.18,2.18,0,0,0-2-1,2.58,2.58,0,0,0-2.38,1.23,7.93,7.93,0,0,0-.74,4v8.84h-4V20.23c0-3-.88-4.57-2.63-4.57a2.65,2.65,0,0,0-2.44,1.25,7.78,7.78,0,0,0-.76,3.94v8.84h-4Z"/><path d="M174.22,29.29c0,.8,0,1.52-.08,2.13s-.13,1.16-.22,1.63a7.24,7.24,0,0,1-1.65,3.32A8,8,0,0,1,165.88,39a8.52,8.52,0,0,1-5.64-1.84,7.55,7.55,0,0,1-2.63-5.26h4a4.52,4.52,0,0,0,.75,1.95,4.25,4.25,0,0,0,3.59,1.6q4.34,0,4.34-5.33V27.77a7.37,7.37,0,0,1-5.43,2.41,7.29,7.29,0,0,1-5.73-2.53,9.38,9.38,0,0,1-2.25-6.42,9.91,9.91,0,0,1,2.09-6.36,7.27,7.27,0,0,1,5.94-2.78,6.92,6.92,0,0,1,5.38,2.41V12.57h4Zm-3.8-8.13a5.78,5.78,0,0,0-1.34-4,4.4,4.4,0,0,0-3.46-1.53,4.27,4.27,0,0,0-3.55,1.67,6.11,6.11,0,0,0-1.18,3.87A6,6,0,0,0,162.07,25a4.27,4.27,0,0,0,3.55,1.64A4.36,4.36,0,0,0,169.21,25,5.9,5.9,0,0,0,170.42,21.16Z"/><path d="M179.21,12.57h3.95V14.1a7.72,7.72,0,0,1,1.94-1.57,4.45,4.45,0,0,1,2-.44,6.4,6.4,0,0,1,3.27,1l-1.81,3.62a3.84,3.84,0,0,0-2.2-.8c-2.16,0-3.24,1.62-3.24,4.88v8.88h-3.95Z"/><path d="M218,12.57v9.82q0,4.26,3.36,4.26t3.36-4.26V12.57h4v9.91a11,11,0,0,1-.51,3.55,6,6,0,0,1-1.7,2.41,8.31,8.31,0,0,1-10.18,0A6,6,0,0,1,214.49,26a9.73,9.73,0,0,1-.49-3.55V12.57Z"/><path d="M237.57,39h-4V12.57h4v1.86a7.32,7.32,0,0,1,5.31-2.34,7.41,7.41,0,0,1,5.82,2.61A9.41,9.41,0,0,1,251,21.22a9.23,9.23,0,0,1-2.31,6.41,7.49,7.49,0,0,1-11.14.14ZM247,21.23a5.89,5.89,0,0,0-1.33-4,4.31,4.31,0,0,0-3.41-1.57,4.56,4.56,0,0,0-3.54,1.51,5.76,5.76,0,0,0-1.35,4,5.86,5.86,0,0,0,1.35,4,4.45,4.45,0,0,0,3.52,1.53,4.29,4.29,0,0,0,3.39-1.55A5.59,5.59,0,0,0,247,21.23Z"/><polygon points="206.48 20.91 206.48 20.91 206.48 20.91 206.48 20.91 206.48 20.91"/><path d="M206.1,18.89s0,0,0,0,0,0,0,0Z"/><path d="M206.09,18.91s0,0,0,0h0S206.09,18.9,206.09,18.91Z"/><path d="M201.36,12.09a9,9,0,1,0,9,9A9,9,0,0,0,201.36,12.09Zm5.77,8c.07,0,.09,0,.13.06s-.08.08-.09.14h0s0-.07,0-.09a0,0,0,0,0,0,0A.14.14,0,0,0,207.13,20.05Zm-2.41-3.64a0,0,0,0,1,0,0s0,0,0,0h0l0,0Zm-.05,0,0,0h0l0,0Zm-1.58-1h0Zm-1.05,0H202S202,15.37,202,15.41Zm-4.9,1.8,0,0,0,0S197.11,17.25,197.14,17.21Zm-1.56,2.93v.09a.12.12,0,0,1,0,.1l-.05,0c0-.06,0-.09-.08-.14S195.51,20.13,195.58,20.14Zm-.21,1h0Zm7.3,4,0,0s0,0,0,0A.06.06,0,0,1,202.67,25.16Zm4.73-3.84s0,0-.05,0,0,0,0,0,0,0,0,0v0h0c-.05,0-.07,0-.06.05a0,0,0,0,1,0,.06h0s0,0,0,0,0,0,0,0H207c0,.05,0,.06.1.08l0,0h0s.08.06.1.09a.23.23,0,0,1,0,.11s0,0,0,0,0,0,0,.06l0,0s0,0,0,0,0,0,0,.06a.46.46,0,0,1-.07.07h0l0,0h0l-.05,0,0,.05v0l0-.07-.05,0,0,0,0,0,0,.05s.08,0,.09.06a.15.15,0,0,1,.13,0l0,0v0h-.05v0l0,0s0,0,0,.06,0,0,0,0h0s0,0,0,0,0,0,0,0v-.07l-.06,0,0,0s0,0,.05,0,0,0,.06,0l0,0c0-.05.07,0,.12,0l0,.1,0,0s0,0,0,0a.08.08,0,0,1,0,.08l0,0,0,0,.07.11a.27.27,0,0,1,.15,0,.05.05,0,0,1,0,0s.06.06.06.1,0,0,0,0a.13.13,0,0,1,0,.06s0,0,0,0a.19.19,0,0,1,0,.07s0,0,0,0,0,.07,0,.1,0,.06,0,.09h0s0,0,0,.05l0,0h0a.09.09,0,0,0,0,.07s0,0-.05,0,0,0,0,.07l0,0s0,.05,0,.07a.06.06,0,0,1-.07,0h0s-.06,0-.1,0a.12.12,0,0,0,.05.14l0,0s0,.06,0,.08l0,0a0,0,0,0,1,0,.07.25.25,0,0,0-.11,0s0,0,0,0a.07.07,0,0,0-.06,0s0,0-.07,0a.56.56,0,0,1-.05.08s0,0,0,0a.18.18,0,0,0-.15.13c0,.07,0,.07-.11,0l-.17,0-.14-.07c-.06,0-.07.09-.08.15s0,.12-.14.15a.14.14,0,0,1-.09,0,.05.05,0,0,1-.05,0,.17.17,0,0,0-.15-.09h-.11a.26.26,0,0,0-.15,0h-.1l0,0,0,0h0s-.06,0-.09.05v0s0,.05-.07.06l-.06,0a.11.11,0,0,1-.15,0,0,0,0,0,0-.06,0v.07a.09.09,0,0,1-.1,0s0,0,0,.06,0,0,0,.05h0a.14.14,0,0,0-.08.05s0,0-.07,0l-.14,0h-.14c-.06,0-.11,0-.17,0s-.06,0-.07-.05a0,0,0,0,0,0,0h0a.28.28,0,0,0-.18,0,.37.37,0,0,1-.15,0h-.06v0h0s0,0-.06,0a.13.13,0,0,0-.12-.08h0l-.15,0-.08,0a.15.15,0,0,1-.08,0,.52.52,0,0,1-.13.17l0,0s0,.07-.08.06l0,0,0,0v0h0l0,0,0,0v0a.07.07,0,0,1-.08,0s0,0-.08-.05h0a.07.07,0,0,1-.08,0h0a.2.2,0,0,1-.15-.06l0,0,0,.07s0-.05,0-.05a0,0,0,0,0,0,.06s0,0-.06,0l0,0s0,0-.06,0,0,0,0,0l0,0-.1,0c0,.1,0,.2,0,.29s0,.2,0,.3v.1c0,.11,0,.22,0,.33l0,.19s0,0,0,0,.11.17.22.18l.15.05,0,0v0h-1.44l0,0,.06,0a.46.46,0,0,0,.22-.14.14.14,0,0,0,.05-.1l0-.1a1.15,1.15,0,0,0,0-.26c0-.18,0-.36,0-.54a2.28,2.28,0,0,0,0-.26.09.09,0,0,0-.11-.07l-.12,0h-.06l-.06,0s0,0-.06,0a.15.15,0,0,0-.08,0h0s0,0-.05,0-.13,0-.19,0a.12.12,0,0,1-.1,0l0,0s0,0,0-.06l-.05,0v-.07l0,0a.08.08,0,0,0-.1,0,.15.15,0,0,1-.13,0l-.06,0,0-.05s0,0-.07,0l-.11,0s0,0,0-.05l0,0s0-.07,0-.1-.06,0-.1.08h0s0,.06-.08.06-.08,0-.1,0,0,0,0,0a.14.14,0,0,0,0,.06s0,.05-.09.05-.1,0-.13-.05h0s-.05,0-.07,0a.09.09,0,0,1-.08-.07l0,0v0h0a.17.17,0,0,0-.17.08.09.09,0,0,1-.09.05.12.12,0,0,0-.11,0h0a.58.58,0,0,0-.19,0,.06.06,0,0,1-.08,0s-.05,0-.08,0l0,0s0,0,0,0,0-.07,0-.11H198a.06.06,0,0,0-.07,0,.11.11,0,0,1-.12,0,.19.19,0,0,0-.1-.05s-.05,0-.05,0,0,0,0-.05-.05,0-.05,0l0,0s0,0-.07,0a.09.09,0,0,1-.07,0,.65.65,0,0,0-.31,0,.13.13,0,0,0-.07.06.11.11,0,0,1-.12.05l-.13,0a.14.14,0,0,0-.11,0,.19.19,0,0,1-.18,0h-.26s-.08,0-.12,0a.16.16,0,0,0-.07,0,0,0,0,0,1,0,0s0-.05,0-.06l0,0s0-.06.06-.08v0H196s0,0,0-.06,0,0,0-.06,0,0,0-.06a.14.14,0,0,0,0-.12s-.05,0-.07,0a0,0,0,0,0-.06,0s0,0-.06,0-.05,0-.08,0,0,0,0,0,0,0,0,0h0s0,0,0-.05a.25.25,0,0,1,0-.07.13.13,0,0,0,.06-.14s-.08,0-.12,0h0a.08.08,0,0,1-.08,0,.08.08,0,0,1,0-.09s0,0,0,0,0,0,0,0,0,0,0-.05,0,0,0,0,0,0,0,0l0,0s0-.05,0-.08,0-.05,0-.07,0-.07,0-.11,0,0,0,0l0,0h0a.49.49,0,0,1,0-.12.34.34,0,0,1,.05-.14.14.14,0,0,1,.08-.07l.13,0a.1.1,0,0,1,.07-.09l-.06,0c-.06,0-.08-.08,0-.13a.1.1,0,0,0,0-.09v0l.14,0,.05,0s0,0,.06,0l0,0-.06,0v.06s0,0,0-.08h-.05a.08.08,0,0,1,0-.08s0-.05,0,0l0-.06,0,0a.23.23,0,0,0-.07-.07.19.19,0,0,1,.13,0,.08.08,0,0,1,.1-.05l0,0,0,0,0,0,0,0s0,.06,0,.09l0,0s0,0-.08,0l0,.05-.1,0h-.09a.17.17,0,0,1-.13-.1l0,0,0-.05,0-.12,0,0v0h0l0,0,0,0a.88.88,0,0,0,.17,0l0,0h0l.06,0s0,0,0-.05-.06,0-.08,0,0,0,0,0a0,0,0,0,0,0,0l-.05,0v-.07c0-.06,0-.07-.06-.06h0v0s0,.05,0,0h0s-.06,0-.07-.06,0-.06,0-.09,0-.05.07-.06v.08h0l0-.1h0s0,0,0,0,.05-.05.05-.07a.05.05,0,0,1,.06,0s0,0,0,.06l.05,0v0l0,0h0c0-.05.08-.09.08-.14s0-.07,0-.08,0,0,0,0,0-.08.06-.1h0v0c-.06,0-.08,0-.08-.07s0-.06,0-.1,0,0,0,0l0-.12c.06-.05.09-.06,0-.11s0,0,.08,0a.28.28,0,0,1,0-.09c0-.05,0-.06,0-.07h0v.07l-.05,0s.05,0,.07,0v0h0a.08.08,0,0,0,0,0l0,0,0,0v-.06c0-.05,0-.08,0-.11a.19.19,0,0,0,0-.07s0,0,0,0l.06-.1s0-.06,0-.07l0,0c-.06,0-.09-.06-.06-.11l0-.05s0-.06,0-.1,0,0,0,0h.07a.13.13,0,0,1,.07-.1l.09-.06h0l.06-.05a.07.07,0,0,0,.06-.09s0,0,0,0l0,.06,0,0a0,0,0,0,0,0,0s0,0,0,0l0,.05a.11.11,0,0,1,0-.09h.08a.11.11,0,0,0-.1-.11c0-.06.07-.08.12,0l0-.05V19l0,0s0,0,.06-.05l0-.05,0-.05h.05s0-.06,0-.09a0,0,0,0,1,0,0l0-.06,0,0,.06,0,0-.05.06,0,0-.05a.05.05,0,0,1,.05,0,.15.15,0,0,0,0-.07s0,0,0,0a.21.21,0,0,1,0-.2,0,0,0,0,0,0-.06c0-.05,0-.09,0-.13l0-.07a.14.14,0,0,1,0-.08s0,0,0,0a.64.64,0,0,1,.1-.13v0s0,0,0-.07,0,0,.08,0,0,0,0,0,0-.06,0-.08v0c-.07,0-.07,0-.09-.08l0,0h0s.06,0,.06,0a0,0,0,0,1,0,0h0v0l0-.06-.07,0s0-.08,0-.11a.23.23,0,0,0,.1-.14.08.08,0,0,1,.07,0h.28a.11.11,0,0,1,.09,0v0l0,0a.13.13,0,0,0,.1.07.21.21,0,0,1,0-.06.07.07,0,0,1,0-.11l.06,0s0,0,0,0,0-.06.05-.08,0,0,.06,0,0,0,.07,0l.05,0a.21.21,0,0,1,0-.06.08.08,0,0,0,0-.08s0,0,0,0a0,0,0,0,0,0,0s0-.05,0-.06,0,0,0-.08,0,0,.05,0v0l.06,0,0,0a.08.08,0,0,1,.07,0s.06,0,.08-.07a.19.19,0,0,0,.05-.13v-.08l0,0h.12l0-.06,0,0v0s0,0,.05,0,.06,0,0,0l0,0a.15.15,0,0,1,0,.07.14.14,0,0,1,.12,0c.05,0,.09,0,.08.1s.07,0,.1,0l0,0s0,0,.05,0v0a.08.08,0,0,0,.07,0l.06,0a.12.12,0,0,0-.1,0,0,0,0,0,1,0,0,.06.06,0,0,1,.06,0s0,0,0,0,.07,0,.1,0l0,0h0l0-.07s0,0,0-.05,0,0,.06,0a0,0,0,0,1,0-.07s0,0,0-.05a.94.94,0,0,1,0-.09s0,0,.07,0,0,0,0,0l0,0v0l0-.07-.05,0h0a.17.17,0,0,0,.12,0,.11.11,0,0,1,.11,0,.07.07,0,0,0,.07,0s0,0,0,0l0,0h0l0,0h0v.06s0,0,0,0h0c0-.07,0-.07.09-.06l.08-.05.05,0a.17.17,0,0,1,.14,0h0c.06,0,.06,0,.07.05h0l.05,0a.11.11,0,0,1,0,.11.15.15,0,0,0,0,.11.08.08,0,0,0,.07,0l0,0a.07.07,0,0,1,.09,0l0,0,0,0a.1.1,0,0,0,.05,0s0,0,0,0a.1.1,0,0,0,.08,0l0,0v0l.07,0h.07c.07,0,.1,0,.12.07h0l.09,0a.07.07,0,0,1,.06,0l-.06.06s0-.05-.07,0l0,0v0h.06s0-.05,0-.06h.06c.06,0,.11,0,.15.07s.06-.06.1-.09v0l0,0s0,0,.05,0a.12.12,0,0,1,.07-.07h0s0,0,.06,0l0,0h0a.06.06,0,0,0-.06-.05H202s.05-.07.11-.07,0,0,0-.08,0,0,0,0,.08,0,.11,0,.06.05,0,.1.13,0,.17.05,0,.07,0,.11,0-.06-.05-.1v0l-.06,0,0,0v.05l-.11,0s0,.06,0,.06h0s0,.07,0,.09a.06.06,0,0,1,0,0s0,0,0,.08h0l0,.06,0,0,.05,0s0,0,0,0,0,0,0,0,0,0,0,0h-.07s0-.06,0-.08a0,0,0,0,1,0,.06s0-.06.08,0l0,0a.11.11,0,0,1,.11,0l.06,0s0,0,0,0,0,0,0,0,.05.08.11.09a.08.08,0,0,1,.08-.05l0,0,.07,0h0l0,0h0v0h0s0,0,0,0h0v0s.07,0,.06,0,0-.08-.06-.07,0-.1.09-.06H203l.06.11s0,0,0-.08.05,0,.05.05,0,0-.05,0,.05,0,.09,0a.13.13,0,0,1,.12,0h0s0,0,0,0-.06,0-.08.06,0,0,.06,0v0l0,0h0s0,0,.06,0h0l-.08-.07h.06l0,.08h0l-.06,0h0s.05,0,.07,0v0l.09,0h0a.14.14,0,0,1,.13.07,0,0,0,0,1,0,0s0,0,0,0h0s0,0-.07,0,0,.05,0,.07,0,0,.07,0a.11.11,0,0,1,.11,0h0v0s0,0,0,.07a.12.12,0,0,1,0,.1s0,.08,0,.13h0l.07.06a0,0,0,0,0,.05,0l0-.06s0,0,0,0,0-.1,0-.16a.18.18,0,0,1-.14,0V16h0l0,0h.05s0,0,0,0,0,0,0,0v0h.11s0,0,.08,0l.05,0s0,0,.06,0a.06.06,0,0,1,0,0s0,0,.05,0h0v0h0a.05.05,0,0,1,0,.05.07.07,0,0,0,0,.06s0,0,0,.08,0,0,0,0a.06.06,0,0,1,0,0h-.05v0s.06,0,.08.08l.06,0s.06,0,.08,0l0,0a.16.16,0,0,1,.07.09.08.08,0,0,0,.06.08.07.07,0,0,1,0,.1l0,.05s.06,0,.09-.05l0,0v0h0a.26.26,0,0,0,.12.05h.15c.13,0,.11,0,.16.1l.06.08s0,.07,0,.11l-.06,0,0,.12,0-.05h.07l-.06,0,.05,0,0,0v0h0v0h0s0,.08-.07.09a.08.08,0,0,1,0,.1s.05,0,.09,0,0,0,0,.06,0,0,0,0a1.47,1.47,0,0,1,.1.13s0,.05.06.07a0,0,0,0,1,0,0c0,.06,0,.11.08.16a.07.07,0,0,1,0,.06.14.14,0,0,0,0,.09.19.19,0,0,1,0,.18s0,0,0,0v.06s0,0,.06.05,0,0,0,0l.05,0,0,0,.07,0,0,0,.05.08h0s0,.06,0,.09,0,0,0,0h.07s0,.07,0,.11,0,.06.09.08v0l0,0,.05,0s.06,0,.07.05a.09.09,0,0,1-.05,0s0,0,0,.05l0,0h.07a0,0,0,0,1,.05,0s0,0,0,.05,0,0,.05,0a.14.14,0,0,0,0-.06l0,0,0-.05s0,0,0,0,0,0,.05.07l.06,0s0,0,0,.07l0,.07s.08,0,.08,0l0,0-.06,0a.1.1,0,0,0,0-.09s0,0,.05,0l.05,0a.11.11,0,0,1,.07.1h.08a.06.06,0,0,0,0,0,.08.08,0,0,0,0,.1.1.1,0,0,1,0,0,.08.08,0,0,1-.06.11h0a0,0,0,0,0,0,.07.24.24,0,0,0,.06.11s0,0,0,.05l0,0a.14.14,0,0,1,0,.11.11.11,0,0,0,0,.06l0,0,0,0s0,0,0,0l0,0h0v0h0s0,0,0-.05V20H207l0,.06h0l0,.11s0-.05.06,0l0,0,.08.07v0s0,.08-.05.11a.12.12,0,0,0,0,.08s0,.09-.08.09,0,0,0,0a.08.08,0,0,1,.07.05h0a.15.15,0,0,0,0,.07s0,0,0,.05,0,0,0,.06l.06.11h0s0,0,0,0l0,0s0,0,.06,0,0,0,0,0,0,0,0,0h.05s0,.05.06.08a.07.07,0,0,1,0,.06h0a.17.17,0,0,0,0,.07l0,0v-.08l.08,0Zm-.3,1.1s0,0,0-.07S207.11,22.39,207.1,22.42Zm-11.46.06s0,0,0,.05S195.61,22.5,195.64,22.48Zm6.7-7.08h0l0,0h0l.06,0h0s0,0,0,0Zm-.11.12v0S202.19,15.53,202.23,15.52Zm0,.05h0Zm0-.08s0-.06,0-.1,0,0,0,.07h0v0Zm1.7.65h0a.07.07,0,0,1,0,.05l-.05,0h0l0,0S203.93,16.15,203.93,16.14Zm0,.15h0Z"/></g></g></svg>